<svg xmlns="http://www.w3.org/2000/svg" viewBox="0 0 113 88"><defs><filter id="a" width="120%" height="120%" x="-10%" y="-10%"><feDropShadow dx="2" dy="3" flood-opacity=".3" stdDeviation="3"/></filter></defs><g transform="translate(6 6)"><rect width="100" height="75" fill="#fff" stroke="#4a6fa5" stroke-width="2" filter="url(#a)" rx="4"/><rect width="90" height="65" x="5" y="5" fill="none" stroke="#6994d0" stroke-dasharray="2" rx="3"/><rect width="30" height="30" x="15" y="12" fill="#4a6fa5" fill-opacity=".1" stroke="#4a6fa5" rx="3"/><rect width="20" height="3" x="20" y="17" fill="#4a6fa5" fill-opacity=".6" rx="1"/><rect width="15" height="3" x="20" y="23" fill="#4a6fa5" fill-opacity=".6" rx="1"/><rect width="18" height="3" x="20" y="29" fill="#4a6fa5" fill-opacity=".6" rx="1"/><rect width="30" height="3" x="55" y="15" fill="#4a6fa5" opacity=".5" rx="1.5"/><rect width="25" height="3" x="55" y="22" fill="#4a6fa5" opacity=".5" rx="1.5"/><rect width="30" height="3" x="55" y="29" fill="#4a6fa5" opacity=".5" rx="1.5"/><circle cx="75" cy="55" r="12" fill="gold" opacity=".9"/><circle cx="75" cy="55" r="9" fill="none" stroke="#c90"/><path fill="none" stroke="#c90" stroke-width="2" d="m71 55 3 3 6-6"/></g></svg>