<svg viewBox="0 0 113 88" xmlns="http://www.w3.org/2000/svg">
  <defs>
    <filter id="frame" x="-10%" y="-10%" width="120%" height="120%">
      <feDropShadow dx="2" dy="3" stdDeviation="3" flood-opacity=".3"/>
    </filter>
  </defs>
  <g transform="translate(6 6)">
    <rect width="100" height="75" rx="4" fill="#fff" stroke="#4A6FA5" stroke-width="2" filter="url(#frame)"/>
    <rect x="5" y="5" width="90" height="65" rx="3" fill="none" stroke="#6994D0" stroke-width="1" stroke-dasharray="2"/>
    <rect x="15" y="12" width="30" height="30" rx="3" fill="#4A6FA5" fill-opacity=".1" stroke="#4A6FA5" stroke-width="1"/>
    <rect x="20" y="17" width="20" height="3" rx="1" fill="#4A6FA5" fill-opacity=".6"/>
    <rect x="20" y="23" width="15" height="3" rx="1" fill="#4A6FA5" fill-opacity=".6"/>
    <rect x="20" y="29" width="18" height="3" rx="1" fill="#4A6FA5" fill-opacity=".6"/>
    <rect x="55" y="15" width="30" height="3" rx="1.5" fill="#4A6FA5" opacity=".5"/>
    <rect x="55" y="22" width="25" height="3" rx="1.5" fill="#4A6FA5" opacity=".5"/>
    <rect x="55" y="29" width="30" height="3" rx="1.5" fill="#4A6FA5" opacity=".5"/>
    <circle cx="75" cy="55" r="12" fill="#FFD700" opacity=".9"/>
    <circle cx="75" cy="55" r="9" fill="none" stroke="#CC9900"/>
    <path d="m71 55 3 3 6-6" stroke="#CC9900" stroke-width="2" fill="none"/>
  </g>
</svg>
